<svg height="96" width="96" xmlns="http://www.w3.org/2000/svg" xmlns:xlink="http://www.w3.org/1999/xlink"><linearGradient id="a" stop-color="#fff"><stop offset="0"/><stop offset="1" stop-opacity="0"/></linearGradient><filter id="b" color-interpolation-filters="sRGB" height="1.384" width="1.384" x="-.192" y="-.192"><feGaussianBlur stdDeviation="5.28"/></filter><linearGradient id="c" gradientUnits="userSpaceOnUse" x1="48" x2="48" xlink:href="#a" y1="20.221" y2="138.66"/><clipPath id="d"><rect height="84" rx="6" width="84" x="6" y="6"/></clipPath><linearGradient id="e" gradientTransform="matrix(1.0059 0 0 .99417 100 0)" gradientUnits="userSpaceOnUse" x1="45.448" x2="45.448" y1="92.54" y2="7.0165"><stop offset="0"/><stop offset="1" stop-opacity=".58824"/></linearGradient><radialGradient id="f" cx="48" cy="90.172" gradientTransform="matrix(1.1573 0 0 .99591 -7.551 .19713)" gradientUnits="userSpaceOnUse" r="42" xlink:href="#a"/><linearGradient id="g" gradientUnits="userSpaceOnUse" x1="36.357" x2="36.357" xlink:href="#a" y1="6" y2="63.893"/><linearGradient id="h" gradientUnits="userSpaceOnUse" x1="47.7222" x2="47.7222" y1="90.4446" y2="4.98728844"><stop offset="0" stop-color="#0042b3"/><stop offset="1" stop-color="#2f72ff"/></linearGradient><linearGradient id="i" gradientTransform="translate(0 1)" gradientUnits="userSpaceOnUse" x1="32.251" x2="32.251" xlink:href="#e" y1="90" y2="6"/><linearGradient id="j" gradientTransform="matrix(1.0238 0 0 1.0119 -1.1429 .929)" gradientUnits="userSpaceOnUse" x1="32.251" x2="32.251" xlink:href="#e" y1="90" y2="5.9996"/><linearGradient id="k" gradientTransform="matrix(1.0238 0 0 -1.0119 -1.1429 98.071)" gradientUnits="userSpaceOnUse" x1="32.251" x2="32.251" xlink:href="#e" y1="6.1317" y2="90.239"/><g fill="url(#k)"><path d="m12 95.031c-5.5111 0-10.031-4.52-10.031-10.031v-71c0-5.5111 4.5202-10.031 10.031-10.031h72c5.5111 0 10.031 4.5202 10.031 10.031v71c0 5.5111-4.5202 10.031-10.031 10.031z" opacity=".08"/><path d="m12 94.031c-4.9716 0-9.0312-4.0596-9.0312-9.0312v-71c0-4.9718 4.0596-9.0314 9.0312-9.0314h72c4.9716 0 9.0312 4.0596 9.0312 9.0312v71c0 4.9716-4.0596 9.0312-9.0312 9.0312h-72z" opacity=".1"/><path d="m12 93c-4.4091 0-8-3.591-8-8v-71c0-4.4091 3.5909-8 8-8h72c4.4091 0 8 3.5909 8 8v71c0 4.4091-3.5909 8-8 8z" opacity=".2"/></g><rect fill="url(#j)" height="85" opacity=".3" rx="7" width="86" x="5" y="7"/><rect fill="url(#i)" height="84" opacity=".45" rx="6" width="84" x="6" y="7"/><rect fill="url(#h)" height="84" rx="6" width="84" x="6" y="6"/><path d="m12 6c-3.324 0-6 2.676-6 6v72c0 .33472.04135.6507.09375.96875.0487.2956.09704.59692.1875.875.00988.03038.020892.0636.03125.09375.098865.28777.23488.54745.375.8125.14459.27351.31562.53562.5.78125.18438.24564.37378.47347.59375.6875.43995.42806.94291.81453 1.5 1.0938.27854.13961.57347.24695.875.34375-.2562-.10022-.48671-.23627-.71875-.375-.00741-.0044-.023866.0045-.03125 0-.0319-.019-.0622-.042-.0937-.062-.1204-.077-.231-.164-.3437-.25-.1062-.081-.2133-.161-.3126-.25-.1778-.162-.3473-.346-.4999-.531-.1075-.131-.2183-.266-.3124-.407-.0251-.038-.0385-.086-.0626-.125-.0647-.103-.1302-.204-.1874-.312-.1011-.195-.2057-.416-.2813-.625-.008-.022-.0236-.041-.0313-.063-.0318-.092-.0358-.187-.0624-.281-.0304-.107-.0704-.203-.0938-.313-.0729-.341-.125-.698-.125-1.062v-72c0-2.782 2.2182-5 5-5h72c2.7818 0 5 2.2182 5 5v72c0 .3643-.05212.72099-.125 1.0625-.04415.20689-.08838.39766-.15625.59375-.0077.02195-.0233.04069-.03125.0625-.06274.17374-.13838.36745-.21875.53125-.04158.0828-.07904.16995-.125.25-.0546.09721-.12677.18835-.1875.28125-.09411.14096-.20492.276-.3125.40625-.14317.17445-.30314.347-.46875.5-.01117.0102-.01998.02115-.03125.03125-.13839.12556-.28509.23444-.4375.34375-.10257.07315-.20432.15336-.3125.21875-.0074.0045-.02384-.0044-.03125 0-.23204.13873-.46255.27478-.71875.375.30153-.0968.59646-.20414.875-.34375.55709-.27922 1.0601-.66569 1.5-1.0938.21997-.21403.40937-.44186.59375-.6875s.35541-.50774.5-.78125c.14012-.26505.27614-.52473.375-.8125.01041-.03078.02133-.06274.03125-.09375.09046-.27808.1388-.5794.1875-.875.053-.318.094-.634.094-.969v-72c0-3.324-2.676-6-6-6h-72z" fill="url(#g)" opacity=".25"/><path d="m12 90c-3.324 0-6-2.676-6-6v-72c0-.33472.04135-.6507.09375-.96875.0487-.2956.09704-.59692.1875-.875.0099-.03.0209-.063.0313-.094.0989-.2873.2349-.547.375-.812.1446-.2735.3156-.5356.5-.7812.1844-.2457.3738-.4735.5937-.6876.44-.428.943-.8145 1.5-1.0937.2786-.1396.5735-.2469.8748-.3437-.256.1002-.4865.2362-.7185.375-.00741.0044-.023866-.0045-.03125 0-.031933.0193-.062293.04251-.09375.0625-.1204.0767-.23102.16351-.34375.25-.10617.0808-.21328.16111-.3125.25-.1779.1614-.3474.3453-.5.5312-.1075.1303-.2183.2653-.3124.4063-.0251.0383-.0385.0858-.0626.125-.0647.103-.1302.2045-.1874.3124-.1011.1948-.2057.4158-.2813.625-.008.0219-.0236.0406-.0313.0626-.0318.0919-.0358.1868-.0624.2812-.0304.1066-.0704.203-.0938.3125-.0729.3415-.125.6985-.125 1.0625v72c0 2.7818 2.2182 5 5 5h72c2.7818 0 5-2.2182 5-5v-72c0-.364-.052-.721-.125-1.0625-.044-.2069-.088-.3977-.156-.5937-.008-.022-.024-.0407-.031-.0626-.063-.1737-.139-.3674-.219-.5312-.042-.0828-.079-.17-.125-.25-.055-.0972-.127-.1884-.188-.2812-.094-.141-.205-.276-.312-.4063-.143-.1745-.303-.347-.469-.5-.011-.0102-.02-.0211-.031-.0313-.139-.1255-.285-.2344-.438-.3437-.102-.0731-.204-.1534-.312-.2187-.0074-.0045-.02384.0044-.03125 0-.23204-.13873-.46255-.27478-.71875-.375.30153.0968.59646.20414.875.34375.55709.27922 1.0601.66569 1.5 1.0938.21997.21403.40937.44186.59375.6875s.35541.50774.5.78125c.14012.26505.27614.52473.375.8125.01041.03078.02133.06274.03125.09375.09046.27808.1388.5794.1875.875.053.318.094.634.094.969v72c0 3.324-2.676 6-6 6h-72z" fill="url(#f)" opacity=".15"/><rect height="66" rx="12" style="opacity:.1;stroke:#fefefe;stroke-width:.5;stroke-linecap:round;clip-path:url(#d);fill:url(#c);filter:url(#b)" width="66" x="15" y="15"/><path d="m54.403745 80.04721c-2.126779-1.077958-2.924575-3.041564-2.065695-5.084236.928226-2.207608 2.888771-2.850035 8.697719-2.850035 2.664628 0 4.844764-.160429 4.844764-.356513 0-.196079-1.505612-1.852076-3.345813-3.679991l-3.345802-3.32348h-3.784177-3.784178v-4.36999-4.369992h1.747994c2.203117 0 2.851994-.648882 2.851994-2.851994v-1.747997h4.6 4.599988v3.806506 3.806503l3.449991 3.42697 3.449991 3.426964v-4.94825c0-6.023598.619556-7.867906 2.97344-8.851423 1.434786-.599489 1.818323-.599489 3.253109 0 2.702613 1.129226 2.973428 2.409153 2.973428 14.0527 0 15.364994.659164 14.720328-15.050193 14.719256-9.064521-.00046-10.694044-.109333-12.06656-.804998zm-18.325369-15.987293c-2.16333-.939926-2.857766-2.947623-2.857766-8.262169v-4.384766h4.599989 4.599988v1.747997c0 2.203112.648889 2.851994 2.851994 2.851994h1.747994v4.369992 4.36999l-4.714987-.01798c-3.03648-.01162-5.253333-.251906-6.227212-.675036zm-16.099958-18.399962c-2.5728-1.117826-2.857778-2.516626-2.857778-14.026931 0-11.628851.272877-12.924329 2.958661-14.046525 2.329232-.973214 21.6521-.973748 23.981025-.000644 3.362441 1.404919 3.464628 5.595188.177078 7.261489-1.217813.617253-2.736746.804449-6.531804.804998-2.719751.000394-4.944996.151097-4.944996.334897 0 .183801 1.495574 1.839797 3.323485 3.679993l3.323484 3.345807h3.806495 3.806507v4.369991 4.369991h-1.747994c-2.203105 0-2.851994.648882-2.851994 2.851994v1.747996h-4.599988-4.599989v-3.806505-3.806504l-3.450003-3.426968-3.449991-3.426966v4.948251c0 6.01172-.621096 7.86855-2.95866 8.845248-1.893796.791279-1.512155.79349-3.383538-.01959zm36.242133-1.054959c0-2.203112-.648877-2.851994-2.851994-2.851994h-1.747994v-4.36999-4.369991h3.806507 3.806506l3.323485-3.34581c1.827911-1.840195 3.323472-3.496192 3.323472-3.679992s-2.225244-.334504-4.944983-.334897c-3.79507-.000552-5.314003-.187745-6.531805-.804998-3.287549-1.666302-3.185375-5.85657.177079-7.261489 2.328912-.973084 21.651792-.97255 23.981013.000644 2.685796 1.122196 2.958661 2.417674 2.958661 14.046524 0 11.643547-.270815 12.923474-2.973428 14.052699-1.434786.59949-1.818323.59949-3.253109 0-2.353884-.983516-2.97344-2.827824-2.97344-8.851422v-4.948249l-3.449991 3.426967-3.449991 3.426967v3.806505 3.806504h-4.599988-4.6z" fill="#ffd500" stroke="#000" stroke-opacity=".382716"/></svg>